<mxfile host="app.diagrams.net" agent="Mozilla/5.0 (Windows NT 10.0; Win64; x64) AppleWebKit/537.36 (KHTML, like Gecko) Chrome/129.0.0.0 Safari/537.36" version="24.7.17">
  <diagram name="Page-1" id="V1-ncN4GTna2SBmXUCKs">
    <mxGraphModel dx="1434" dy="818" grid="1" gridSize="10" guides="1" tooltips="1" connect="1" arrows="1" fold="1" page="1" pageScale="1" pageWidth="850" pageHeight="1100" math="0" shadow="0">
      <root>
        <mxCell id="0" />
        <mxCell id="1" parent="0" />
        <mxCell id="pPt4g7j8uqaRM8abI4t7-3" value="" style="edgeStyle=orthogonalEdgeStyle;rounded=0;orthogonalLoop=1;jettySize=auto;html=1;" parent="1" source="pPt4g7j8uqaRM8abI4t7-1" target="pPt4g7j8uqaRM8abI4t7-2" edge="1">
          <mxGeometry relative="1" as="geometry" />
        </mxCell>
        <mxCell id="pPt4g7j8uqaRM8abI4t7-1" value="Start" style="rounded=1;whiteSpace=wrap;html=1;" parent="1" vertex="1">
          <mxGeometry x="365" y="40" width="120" height="60" as="geometry" />
        </mxCell>
        <mxCell id="pPt4g7j8uqaRM8abI4t7-5" value="" style="edgeStyle=orthogonalEdgeStyle;rounded=0;orthogonalLoop=1;jettySize=auto;html=1;" parent="1" source="pPt4g7j8uqaRM8abI4t7-2" target="pPt4g7j8uqaRM8abI4t7-4" edge="1">
          <mxGeometry relative="1" as="geometry" />
        </mxCell>
        <mxCell id="pPt4g7j8uqaRM8abI4t7-2" value="int number;" style="shape=parallelogram;perimeter=parallelogramPerimeter;whiteSpace=wrap;html=1;fixedSize=1;" parent="1" vertex="1">
          <mxGeometry x="365" y="150" width="120" height="60" as="geometry" />
        </mxCell>
        <mxCell id="pPt4g7j8uqaRM8abI4t7-7" value="" style="edgeStyle=orthogonalEdgeStyle;rounded=0;orthogonalLoop=1;jettySize=auto;html=1;" parent="1" source="pPt4g7j8uqaRM8abI4t7-4" target="pPt4g7j8uqaRM8abI4t7-6" edge="1">
          <mxGeometry relative="1" as="geometry" />
        </mxCell>
        <mxCell id="pPt4g7j8uqaRM8abI4t7-4" value="int minlik = number / 1000;&lt;div&gt;int yuzluk = (number / 100) % 10;&lt;/div&gt;&lt;div&gt;int onluq = (number / 10) % 10;&lt;/div&gt;&lt;div&gt;int teklik = number % 10&lt;/div&gt;" style="whiteSpace=wrap;html=1;" parent="1" vertex="1">
          <mxGeometry x="330" y="270" width="190" height="60" as="geometry" />
        </mxCell>
        <mxCell id="pPt4g7j8uqaRM8abI4t7-9" value="" style="edgeStyle=orthogonalEdgeStyle;rounded=0;orthogonalLoop=1;jettySize=auto;html=1;" parent="1" source="pPt4g7j8uqaRM8abI4t7-6" target="pPt4g7j8uqaRM8abI4t7-8" edge="1">
          <mxGeometry relative="1" as="geometry" />
        </mxCell>
        <mxCell id="pPt4g7j8uqaRM8abI4t7-6" value="(minlik + yuzluk + onluq + teklik) / 4" style="whiteSpace=wrap;html=1;" parent="1" vertex="1">
          <mxGeometry x="300" y="410" width="250" height="60" as="geometry" />
        </mxCell>
        <mxCell id="pPt4g7j8uqaRM8abI4t7-8" value="End" style="rounded=1;whiteSpace=wrap;html=1;" parent="1" vertex="1">
          <mxGeometry x="365" y="550" width="120" height="60" as="geometry" />
        </mxCell>
      </root>
    </mxGraphModel>
  </diagram>
</mxfile>
